<svg xmlns="http://www.w3.org/2000/svg" width="32" height="30" viewBox="0 0 32 30">
  <g fill="none" fill-rule="evenodd" transform="translate(0 -1)">
    <path fill="#21A366" fill-rule="nonzero" d="M21.3333333,1.33333333 L9.33333333,1.33333333 C8.59698491,1.33333333 8.00008,1.93031824 8.00008,2.66666667 L8.00008,9.33333333 L21.3333333,16 L26.6666667,18 L32,16 L32,9.33333333 L21.3333333,1.33333333 Z"/>
    <rect width="32" height="32"/>
    <rect width="13.333" height="6.639" x="8" y="9.361" fill="#107C41" fill-rule="nonzero"/>
    <path fill="#33C481" fill-rule="nonzero" d="M32,2.66666667 L32,9.33333333 L21.3333333,9.33333333 L21.3333333,1.33333333 L30.6666667,1.33333333 C31.4021345,1.33552987 31.9978035,1.93119876 32,2.66666667 L32,2.66666667 Z"/>
    <path fill="#185C37" fill-rule="nonzero" d="M21.3333333,16 L8,16 L8,29.3333333 C8,30.0697129 8.59695367,30.6666667 9.33333333,30.6666667 L30.6666667,30.6666667 C31.4030463,30.6666667 32,30.0697129 32,29.3333333 L32,22.6666667 L21.3333333,16 Z"/>
    <path fill="#000" fill-rule="nonzero" d="M18.4444133,8 L8,8 L8,26.6665733 L18.1388933,26.6665733 C19.1181725,26.6028355 19.9065393,25.8380049 19.99992,24.8611067 L19.99992,9.55557333 C19.9974231,8.69751629 19.3024703,8.00253368 18.4444133,8 Z" opacity=".5"/>
    <rect width="18.667" height="18.667" y="6.667" fill="#107C41" fill-rule="nonzero" rx="1.556"/>
    <path fill="#FFF" fill-rule="nonzero" d="M4.56906667,21.3333333 L8.02048,15.9851067 L4.85916,10.6666667 L7.40316,10.6666667 L9.12886667,14.066 C9.28748,14.3884889 9.39657777,14.629 9.45616,14.7875333 L9.47848,14.7875333 C9.59245333,14.5298267 9.71146667,14.2794 9.83552,14.0362533 L11.6801733,10.6666667 L14.01584,10.6666667 L10.7726933,15.9553333 L14.0976533,21.3333333 L11.6132267,21.3333333 L9.61973333,17.5992133 C9.52580227,17.4404584 9.44614751,17.2736796 9.38170667,17.10084 L9.352,17.10084 C9.29378308,17.2702589 9.21641552,17.4324781 9.1214,17.5843467 L7.06837333,21.3333333 L4.56906667,21.3333333 Z"/>
    <rect width="10.667" height="6.667" x="21.333" y="16" fill="#107C41" fill-rule="nonzero"/>
  </g>
</svg>
