<svg xmlns="http://www.w3.org/2000/svg" width="32" height="28" viewBox="0 0 32 28">
  <g fill="none" fill-rule="evenodd" transform="translate(0 -2)">
    <path fill="#CA64EA" fill-rule="nonzero" d="M9.33319,2 L30.66656,2 C31.4029268,2 31.99988,2.59694322 31.99988,3.33331 L31.99988,28.66666 C31.99988,29.020281 31.8594081,29.3594213 31.6093631,29.6094719 C31.3593182,29.8595226 31.020181,30 30.66656,30 L9.33325,30 C8.97961309,30 8.64046067,29.8595162 8.39040442,29.6094544 C8.14034818,29.3593925 7.99988,29.0202369 7.99988,28.6666 L7.99988,3.33331 C7.99988,2.59694322 8.59682322,2 9.33319,2 Z"/>
    <path fill="#CA64EA" fill-rule="nonzero" d="M31.99988,3.33337 C31.99988,2.97974451 31.8593866,2.64060591 31.609329,2.3905615 C31.3592715,2.14051708 31.0201255,2.00006 30.6665,2.00006 L9.33319,2.00006 C8.97957176,2.00006 8.64043452,2.14052282 8.39038867,2.39056867 C8.14034282,2.64061452 7.99988,2.97975176 7.99988,3.33337 L7.99988,28.66668 C7.99988,29.0202992 8.1403425,29.3594374 8.39038806,29.6094849 C8.64043363,29.8595323 8.97957084,30 9.33319,30 L24.99982,30 L31.99988,9.00006 L31.99988,3.33337 Z"/>
    <polygon fill="#AE4BD5" fill-rule="nonzero" points="32 9 25 9 25 16 28.5 19.195 32 16"/>
    <polygon fill="#9332BF" fill-rule="nonzero" points="32 16 25 16 25 23 28.5 26.395 32 23"/>
    <path fill="#7719AA" fill-rule="nonzero" d="M24.99985,23 L31.99985,23 L31.99985,28.66667 C31.99985,29.4030478 31.4028978,30 30.66652,30 L24.99985,30 L24.99985,23 Z"/>
    <path fill="#000" fill-rule="nonzero" d="M16.66663,7 L8,7 L8,26 L16.66663,26 C17.4021295,25.9978308 17.9978308,25.4021295 18,24.66663 L18,8.33331 C17.9978251,7.59782256 17.4021175,7.00214176 16.66663,7 Z" opacity=".1"/>
    <path fill="#000" fill-rule="nonzero" d="M15.66663,8 L8,8 L8,27 L15.66663,27 C16.4021295,26.9978308 16.9978308,26.4021295 17,25.66663 L17,9.33331 C16.9978251,8.59782256 16.4021175,8.00214176 15.66663,8 Z" opacity=".2"/>
    <path fill="#000" fill-rule="nonzero" d="M15.66663,8 L8,8 L8,25 L15.66663,25 C16.4021295,24.9978308 16.9978308,24.4021295 17,23.66663 L17,9.33331 C16.9978251,8.59782256 16.4021175,8.00214176 15.66663,8 Z" opacity=".3"/>
    <path fill="#000" fill-rule="nonzero" d="M14.66663,8 L8,8 L8,25 L14.66663,25 C15.4021295,24.9978308 15.9978308,24.4021295 16,23.66663 L16,9.33331 C15.9978251,8.59782256 15.4021175,8.00214176 14.66663,8 Z" opacity=".2"/>
    <path fill="#7719AA" fill-rule="nonzero" d="M1.33333,8 L14.66669,8 C15.4030616,8 16,8.59696837 16,9.33334 L16,22.66666 C16,23.40303 15.40307,24 14.6667,24 L1.33334,24 C0.596956652,24 0,23.4030433 0,22.66666 L0,9.33333 C0,8.59695217 0.596952175,8 1.33333,8 Z"/>
    <path fill="#FFF" fill-rule="nonzero" d="M4.00149,11 L6.131,11 L9.78745,17.73163 C9.97795,18.02199 10.1208233,18.2555767 10.21607,18.43239 L10.24328,18.43239 C10.1919238,17.9921384 10.1714637,17.5488305 10.18205,17.10572 L10.18205,11 L11.99857,11 L11.99857,21 L10.00513,21 L6.1922,14.37073 C6.04549599,14.1519717 5.91584646,13.9222466 5.8044,13.68359 L5.7704,13.68359 C5.81448704,14.1675825 5.83265299,14.6535868 5.82482,15.13952 L5.82482,21 L4.00149,21 L4.00149,11 Z"/>
    <rect width="32" height="32"/>
  </g>
</svg>
