<svg xmlns="http://www.w3.org/2000/svg" width="32" height="28" viewBox="0 0 32 28">
  <g fill="none" fill-rule="evenodd" transform="translate(0 -2)">
    <path fill="#0364B8" fill-rule="nonzero" d="M28.59554,2 L11.404,2 C11.0316239,2 10.6745004,2.14793061 10.4111973,2.41124683 C10.1478942,2.67456304 10,3.03169392 10,3.40407 L10,5 L19.69,8 L29.99961,5 L29.99961,3.404 C29.99961,2.62857631 29.3709637,2 28.59554,2 Z"/>
    <path fill="#0A2767" fill-rule="nonzero" d="M31.6499,17.40548 C31.7964094,16.9450655 31.9133477,16.4757593 32,16.0004303 C32,15.7624166 31.8728878,15.5425216 31.66669,15.42364 L31.66669,15.42316 L31.65387,15.41589 L31.64987,15.41364 L20.81213,9.2395 C20.765268,9.20923024 20.7167525,9.18160058 20.66681,9.15674 L20.66681,9.15668 C20.2467877,8.94834706 19.7535223,8.94834706 19.3335,9.15668 L19.33344,9.15674 C19.2835068,9.18158767 19.2350072,9.20921777 19.18817,9.2395 L8.3504,15.41364 L8.3464,15.41589 L8.33365,15.42316 L8.33365,15.42364 C8.12746427,15.5425337 8.00034,15.7624211 8.00034,16.0004303 C8.0869966,16.475741 8.20393142,16.9450301 8.35043,17.40543 L19.84214,25.81043 L31.6499,17.40548 Z"/>
    <polygon fill="#28A8EA" fill-rule="nonzero" points="24 5 17 5 14.979 8 17 11 24 17 30 17 30 11"/>
    <rect width="7" height="6" x="10" y="5" fill="#0078D4" fill-rule="nonzero"/>
    <rect width="6" height="6" x="24" y="5" fill="#50D9FF" fill-rule="nonzero"/>
    <polygon fill="#0364B8" fill-rule="nonzero" points="24 17 17 11 10 11 10 17 17 23 27.832 24.768"/>
    <path d="M10.03118,5.000005 L29.99961,5.000005"/>
    <rect width="7" height="6" x="17" y="11" fill="#0078D4" fill-rule="nonzero"/>
    <rect width="7" height="6" x="10" y="17" fill="#064A8C" fill-rule="nonzero"/>
    <rect width="6" height="6" x="24" y="17" fill="#0078D4" fill-rule="nonzero"/>
    <path fill="#0A2767" fill-rule="nonzero" d="M20.19093,25.21763 L8.39736,16.61718 L8.8915,15.748 C8.8915,15.748 19.6365,21.86812 19.80055,21.95991 C19.9364826,22.0143233 20.0888974,22.0099054 20.22145,21.94771 C20.37477,21.86128 31.15394,15.71771 31.15394,15.71771 L31.65003,16.58685 L20.19093,25.21763 Z" opacity=".5"/>
    <path fill="#1490DF" fill-rule="nonzero" d="M31.66669,16.57678 L31.66669,16.57727 L31.65344,16.58484 L31.65009,16.58673 L20.81209,22.76093 C20.3743251,23.0434444 19.8211448,23.077981 19.35164,22.85211 L23.12632,27.913 L31.38037,29.71 L31.38007,29.71446 C31.7697123,29.4326497 32.0003255,28.9808722 32.0000003,28.5 L32.0000003,16.00006 C32.0000003,16.2380439 31.8728541,16.4578988 31.66669,16.57678 Z"/>
    <path fill="#000" fill-rule="nonzero" d="M32.0000003,28.5 L32.0000003,27.762 L22.01709,22.07444 L20.81209,22.76091 C20.374317,23.0433995 19.8211498,23.0779352 19.35164,22.85209 L23.12634,27.913 L31.38034,29.70994 L31.38004,29.7144 C31.7696765,29.4326086 32.0002992,28.9808564 32.0000003,28.5 L32.0000003,28.5 Z" opacity=".05"/>
    <path fill="#000" fill-rule="nonzero" d="M31.95,28.88342 L21.00708,22.64984 L20.81213,22.76093 C20.374357,23.0434195 19.8211898,23.0779552 19.35168,22.85211 L23.12634,27.913 L31.38034,29.70994 L31.38004,29.7144 C31.6600859,29.5113402 31.8614194,29.2178037 31.95,28.88342 L31.95,28.88342 Z" opacity=".1"/>
    <path fill="#28A8EA" fill-rule="nonzero" d="M8.35,16.59 L8.35,16.58 L8.34,16.58 L8.31,16.56 C8.1156505,16.4405762 7.99803009,16.2281006 7.99997564,16 L7.99997564,28.5 C7.99946829,28.8979875 8.15733279,29.2798274 8.4387527,29.5612473 C8.72017262,29.8426672 9.1020125,30.0005317 9.5,30 L30.5,30 C30.6249324,29.9987801 30.7492249,29.9819838 30.87,29.95 C30.9326591,29.9390991 30.9933322,29.9188747 31.05,29.89 C31.0712509,29.8879364 31.0917612,29.8810997 31.11,29.87 C31.1918459,29.8365472 31.2691271,29.7928665 31.34,29.74 C31.36,29.73 31.37,29.73 31.38,29.71 L8.35,16.59 Z"/>
    <path fill="#000" fill-rule="nonzero" d="M18,24.66663 L18,8.33331 C17.9978251,7.59782256 17.4021175,7.00214176 16.66663,7 L10.03113,7 L10.03113,11 L10.03119,11 L10.03119,14.456 L8.35034,15.41359 L8.34634,15.41584 L8.33353,15.42311 L8.33353,15.42359 C8.12732683,15.5424675 8.00025131,15.762364 8.00021,16.00038 L8.0004,16.00459 L8,16.001 L8,26 L16.66663,26 C17.4021295,25.9978308 17.9978308,25.4021295 18,24.66663 Z" opacity=".1"/>
    <path fill="#000" fill-rule="nonzero" d="M17,25.66663 L17,9.33331 C16.9978251,8.59782256 16.4021175,8.00214176 15.66663,8 L10.03113,8 L10.03113,11 L10.03119,11 L10.03119,14.456 L8.35034,15.41359 L8.34634,15.41584 L8.33353,15.42311 L8.33353,15.42359 C8.12732683,15.5424675 8.00025131,15.762364 8.00021,16.00038 L8.0004,16.00459 L8,16.001 L8,27 L15.66663,27 C16.4021295,26.9978308 16.9978308,26.4021295 17,25.66663 Z" opacity=".2"/>
    <path fill="#000" fill-rule="nonzero" d="M17,23.66663 L17,9.33331 C16.9978251,8.59782256 16.4021175,8.00214176 15.66663,8 L10.03113,8 L10.03113,11 L10.03119,11 L10.03119,14.456 L8.35034,15.41359 L8.34634,15.41584 L8.33353,15.42311 L8.33353,15.42359 C8.12732683,15.5424675 8.00025131,15.762364 8.00021,16.00038 L8.0004,16.00459 L8,16.001 L8,25 L15.66663,25 C16.4021295,24.9978308 16.9978308,24.4021295 17,23.66663 L17,23.66663 Z" opacity=".2"/>
    <path fill="#000" fill-rule="nonzero" d="M16,23.66663 L16,9.33331 C15.9978251,8.59782256 15.4021175,8.00214176 14.66663,8 L10.03113,8 L10.03113,11 L10.03119,11 L10.03119,14.456 L8.35034,15.41359 L8.34634,15.41584 L8.33353,15.42311 L8.33353,15.42359 C8.12732683,15.5424675 8.00025131,15.762364 8.00021,16.00038 L8.0004,16.00459 L8,16.001 L8,25 L14.66663,25 C15.4021295,24.9978308 15.9978308,24.4021295 16,23.66663 L16,23.66663 Z" opacity=".2"/>
    <path fill="#0078D4" fill-rule="nonzero" d="M1.33348,8 L14.66668,8 C15.4030523,8 16,8.5969477 16,9.33332 L16,22.66666 C16,23.0202828 15.8595284,23.3594231 15.6094802,23.6094731 C15.3594321,23.8595232 15.0202928,24 14.66667,24 L1.33347,24 C0.979849817,24 0.640713143,23.8595242 0.390666851,23.6094761 C0.140620559,23.3594279 0.00015,23.0202902 0.00015,22.66667 L0.00015,9.33333 C0.00015,8.59695217 0.597102175,8 1.33348,8 Z"/>
    <path fill="#FFF" fill-rule="nonzero" d="M3.86661,13.468 C4.22082572,12.713187 4.7926147,12.081507 5.50853,11.6541 C6.30161185,11.2000769 7.20461083,10.9737346 8.11808,11 C8.96440257,10.9815695 9.79950215,11.1961769 10.53208,11.62036 C11.2214957,12.0309116 11.7767146,12.6330018 12.13017,13.35336 C12.5149604,14.1470219 12.7067293,15.0203897 12.68984,15.90225 C12.7086297,16.8240444 12.5111759,17.7374185 12.11331,18.56914 C11.7520008,19.3149984 11.1799804,19.9385849 10.468,20.36277 C9.70699086,20.8002752 8.8405637,21.0206797 7.963,21 C7.09848724,21.0205599 6.24488907,20.8036584 5.49506,20.37289 C4.80004013,19.9615585 4.23820242,19.3587476 3.87673,18.63654 C3.48928607,17.8543842 3.29504882,16.9907242 3.31031,16.118 C3.29333028,15.2039991 3.48351831,14.2980161 3.86661,13.468 L3.86661,13.468 Z M5.61642,17.72626 C5.80542039,18.2033785 6.12571595,18.6171946 6.54021,18.91978 C6.96238785,19.2152045 7.46809555,19.3676282 7.98321,19.35471 C8.53183439,19.3761685 9.07257784,19.2187875 9.524,18.90627 C9.93359559,18.6036309 10.2454105,18.1874814 10.42082,17.70937 C10.6178153,17.1764993 10.7149631,16.611898 10.7074,16.04383 C10.7135697,15.4706866 10.6223666,14.900657 10.43768,14.35805 C10.274624,13.8695293 9.9736961,13.4386246 9.5712,13.11732 C9.13147175,12.7891487 8.59212073,12.6224654 8.04391,12.64532 C7.51774361,12.6318695 7.00081966,12.7852958 6.56719,13.08362 C6.14467825,13.387122 5.81726011,13.804594 5.62319,14.28726 C5.19397139,15.3929836 5.19156882,16.6188625 5.61645,17.72626 L5.61642,17.72626 Z"/>
    <rect width="32" height="32"/>
  </g>
</svg>
