<svg xmlns="http://www.w3.org/2000/svg" width="32" height="28" viewBox="0 0 32 28">
  <g fill="none" fill-rule="evenodd" transform="translate(0 -2)">
    <path fill="#ED6C47" fill-rule="nonzero" d="M17.99964,2 C10.2770316,2.02259399 4.02223399,8.2773916 3.99964,16 L21.73664,19.737 L17.99964,2 Z"/>
    <path fill="#FF8F6B" fill-rule="nonzero" d="M17.99964,2 C25.7222484,2.02259399 31.977046,8.2773916 31.99964,16 L24.99964,20.75791 L17.99964,16 L17.99964,2 Z"/>
    <path fill="#D35230" fill-rule="nonzero" d="M17.99963,30 C25.7222384,29.977406 31.977036,23.7226084 31.99963,16 L3.99963,16 C4.02222945,23.7226061 10.2770239,29.9774005 17.99963,30 L17.99963,30 Z"/>
    <path fill="#000" fill-rule="nonzero" d="M16.66644,7 L7.30511,7 C2.5613265,12.5894905 2.96846814,20.9009139 8.23584,26 L16.66644,26 C17.4019434,25.9978363 17.9976507,25.4021334 17.99982,24.66663 L17.99982,8.33331 C17.9976451,7.59781867 17.4019314,7.00213627 16.66644,7 Z" opacity=".1"/>
    <path fill="#000" fill-rule="nonzero" d="M15.66644,8 L6.53876,8 C2.25677293,14.0759638 3.51019544,22.4450933 9.38434,27 L15.66644,27 C16.4019434,26.9978363 16.9976507,26.4021334 16.99982,25.66663 L16.99982,9.33331 C16.9976451,8.59781867 16.4019314,8.00213627 15.66644,8 L15.66644,8 Z" opacity=".2"/>
    <path fill="#000" fill-rule="nonzero" d="M15.66644,8 L6.53876,8 C2.88668725,13.1781175 3.2019441,20.1714841 7.30511,25 L15.66644,25 C16.4019434,24.9978363 16.9976507,24.4021334 16.99982,23.66663 L16.99982,9.33331 C16.9976451,8.59781867 16.4019314,8.00213627 15.66644,8 L15.66644,8 Z" opacity=".2"/>
    <path fill="#000" fill-rule="nonzero" d="M14.66644,8 L6.53876,8 C2.88668725,13.1781175 3.2019441,20.1714841 7.30511,25 L14.66644,25 C15.4019434,24.9978363 15.9976507,24.4021334 15.99982,23.66663 L15.99982,9.33331 C15.9976451,8.59781867 15.4019314,8.00213627 14.66644,8 Z" opacity=".2"/>
    <path fill="#C43E1C" fill-rule="nonzero" d="M1.33333,8 L14.66669,8 C15.4030616,8 16,8.59696837 16,9.33334 L16,22.66666 C16,23.40303 15.40307,24 14.6667,24 L1.33334,24 C0.596956652,24 0,23.4030433 0,22.66666 L0,9.33333 C0,8.59695217 0.596952175,8 1.33333,8 Z"/>
    <path fill="#F9F7F7" fill-rule="nonzero" d="M7.9975,11 C8.9821378,10.933746 9.95834034,11.2190405 10.75234,11.8051 C11.4122373,12.3940342 11.7646338,13.2537258 11.70796,14.13639 C11.71885,14.7016717 11.553711,15.2563544 11.23541,15.72363 C10.9111784,16.2405682 10.4443699,16.6527108 9.89124,16.91039 C9.25908135,17.2036973 8.56821341,17.3485369 7.87148,17.33383 L5.96025,17.33383 L5.96025,21 L4,21 L4,11 L7.9975,11 Z M5.96025,15.68319 L7.64746,15.68319 C8.18212676,15.7222142 8.71257805,15.5641154 9.13864,15.23875 C9.48375504,15.0168428 9.67776387,14.6222012 9.64271,14.2134 C9.64271,13.10726 8.99862667,12.55419 7.71046,12.55419 L5.96025,12.55419 L5.96025,15.68319 Z"/>
    <rect width="32" height="32"/>
  </g>
</svg>
