<svg xmlns="http://www.w3.org/2000/svg" width="32" height="32" viewBox="0 0 32 32">
  <g fill="none" fill-rule="evenodd">
    <circle cx="15" cy="9.5" r="9.5" fill="#036C70" fill-rule="nonzero"/>
    <circle cx="23.875" cy="17.875" r="8.125" fill="#1A9BA1" fill-rule="nonzero"/>
    <circle cx="16" cy="25.5" r="6.5" fill="#37C6D0" fill-rule="nonzero"/>
    <path fill="#000" fill-rule="nonzero" d="M16.66663,7 L5.83276,7 C5.05588529,9.8566823 5.65432868,12.9122293 7.45145661,15.2647809 C9.24858454,17.6173326 12.0391967,18.9982691 14.99963,19 C15.27692,19 15.55127,18.98737 15.82251,18.96411 L15.82788,19.00226 C12.3061697,19.0953839 9.49966181,21.9770587 9.49963,25.5 C9.49963,25.6682067 9.50596333,25.8348733 9.51863,26 L16.66663,26 C17.4021295,25.9978308 17.9978308,25.4021295 18,24.66663 L18,8.33331 C17.9978251,7.59782256 17.4021175,7.00214176 16.66663,7 Z" opacity=".1"/>
    <path fill="#000" fill-rule="nonzero" d="M15.66663,8 L5.61792,8 C5.18051247,10.7465549 5.96795686,13.5468953 7.77271407,15.6629626 C9.57747128,17.7790298 12.2184635,18.9985113 14.99963,19 C15.27692,19 15.55127,18.98737 15.82251,18.96411 L15.82788,19.00226 C13.8713398,19.0553208 12.0427017,19.9865841 10.8491101,21.5377786 C9.65551846,23.0889731 9.22387526,25.0951767 9.67389,27 L15.66663,27 C16.4021295,26.9978308 16.9978308,26.4021295 17,25.66663 L17,9.33331 C16.9978251,8.59782256 16.4021175,8.00214176 15.66663,8 Z" opacity=".2"/>
    <path fill="#000" fill-rule="nonzero" d="M15.66663,8 L5.61792,8 C5.18051247,10.7465549 5.96795686,13.5468953 7.77271407,15.6629626 C9.57747128,17.7790298 12.2184635,18.9985113 14.99963,19 C15.27692,19 15.55127,18.98737 15.82251,18.96411 L15.82788,19.00226 C12.4990379,19.0904329 9.77512266,21.6798793 9.51868,25 L15.66668,25 C16.40216,24.9978033 16.9978309,24.4021101 17,23.66663 L17,9.33331 C16.9978251,8.59782256 16.4021175,8.00214176 15.66663,8 Z" opacity=".2"/>
    <path fill="#000" fill-rule="nonzero" d="M14.66663,8 L5.61792,8 C5.18051247,10.7465549 5.96795686,13.5468953 7.77271407,15.6629626 C9.57747128,17.7790298 12.2184635,18.9985113 14.99963,19 C15.27692,19 15.55127,18.98737 15.82251,18.96411 L15.82788,19.00226 C12.4990379,19.0904329 9.77512266,21.6798793 9.51868,25 L14.66668,25 C15.40216,24.9978033 15.9978309,24.4021101 16,23.66663 L16,9.33331 C15.9978251,8.59782256 15.4021175,8.00214176 14.66663,8 Z" opacity=".2"/>
    <path fill="#038387" fill-rule="nonzero" d="M1.33333,8 L14.66669,8 C15.4030616,8 16,8.59696837 16,9.33334 L16,22.66666 C16,23.40303 15.40307,24 14.6667,24 L1.33333,24 C0.979707165,24 0.640567947,23.8595232 0.39051978,23.6094731 C0.140471613,23.3594231 0,23.0202828 0,22.66666 L0,9.33333 C0,8.59695217 0.596952175,8 1.33333,8 Z"/>
    <path fill="#FFF" fill-rule="nonzero" d="M6.17238,15.91327 C5.84464258,15.6962429 5.57100979,15.4069834 5.3725,15.06771 C5.17945768,14.7131537 5.08330953,14.3139672 5.09375,13.9104 C5.07680657,13.3643681 5.2611429,12.8311541 5.6117,12.41217 C5.97996904,11.99265 6.45615973,11.6820698 6.98854,11.51417 C7.59547089,11.3141584 8.23121754,11.2155468 8.87022,11.2223 C9.7103274,11.1915411 10.5492772,11.3091723 11.34853,11.56979 L11.34853,13.32034 C11.0011806,13.1095417 10.6228477,12.9546673 10.22739,12.86139 C9.79831284,12.7558742 9.35797951,12.7030216 8.91612,12.704 C8.45039933,12.6872474 7.98769316,12.7851491 7.56867,12.9891 C7.24540275,13.1287912 7.03563935,13.4467639 7.03444,13.79892 C7.03234587,14.0123389 7.11352558,14.2181687 7.26074,14.3727 C7.43559993,14.5539947 7.64218454,14.7017319 7.87027,14.8086 C8.12618333,14.9354867 8.50758,15.1037667 9.01446,15.31344 C9.07063425,15.3312336 9.12541954,15.3531464 9.17837,15.379 C9.67855461,15.5746457 10.1611094,15.8126679 10.62077,16.09047 C10.968912,16.3051092 11.2610508,16.5994244 11.4731,16.94915 C11.6915667,17.3448022 11.7980989,17.7925036 11.78125,18.24415 C11.8060007,18.8048926 11.6344261,19.3567131 11.29608,19.80456 C10.958382,20.2164023 10.5068833,20.519683 9.99792,20.67656 C9.39988017,20.8641072 8.77570621,20.9548553 8.14902,20.94537 C7.58775879,20.9477735 7.02733789,20.9017159 6.474,20.80771 C6.00600354,20.7331595 5.54902018,20.6010305 5.11345,20.41433 L5.11345,18.56543 C5.53048076,18.8628849 5.99650368,19.0848013 6.49029,19.22107 C6.98089204,19.3741099 7.49095198,19.455806 8.00481,19.46365 C8.48067761,19.4939179 8.95572828,19.3930394 9.37823,19.172 C9.6718771,19.0035133 9.84941378,18.6875046 9.84056,18.34907 C9.84229931,18.1130151 9.749006,17.8861841 9.58169,17.71966 C9.3727813,17.5149581 9.13118054,17.346549 8.86684,17.22137 C8.56313333,17.0684633 8.11405667,16.8674033 7.51961,16.61819 C7.04821588,16.4285878 6.5969059,16.1924459 6.17238,15.91327 Z"/>
    <rect width="32" height="32"/>
  </g>
</svg>
