<svg xmlns="http://www.w3.org/2000/svg" width="32" height="28" viewBox="0 0 32 28">
  <g fill="none" fill-rule="evenodd" transform="translate(0 -2)">
    <path fill="#41A5EE" fill-rule="nonzero" d="M30.66665,2 L9.33327,2 C8.59692113,2 8,2.59696113 8,3.33331 L8,9 L20,12.5 L32,9 L32,3.33331 C32,2.9796889 31.8595142,2.6405533 31.6094625,2.39050917 C31.3594109,2.14046504 31.0202711,2 30.66665,2 Z"/>
    <polygon fill="#2B7CD3" fill-rule="nonzero" points="32 9 8 9 8 16 20 19.5 32 16"/>
    <polygon fill="#185ABD" fill-rule="nonzero" points="32 16 8 16 8 23 20 26.5 32 23"/>
    <path fill="#103F91" fill-rule="nonzero" d="M32,23 L8,23 L8,28.66666 C8,29.4030433 8.59695665,30 9.33334,30 L30.6667,30 C31.4030677,30 32,29.4030277 32,28.66666 L32,23 Z"/>
    <path fill="#000" fill-rule="nonzero" d="M16.66665,7 L8,7 L8,26 L16.66663,26 C17.4021295,25.9978308 17.9978308,25.4021295 18,24.66663 L18,8.33331 C17.9978252,7.59783033 17.4021297,7.00215274 16.66665,7 Z" opacity=".1"/>
    <path fill="#000" fill-rule="nonzero" d="M15.66665,8 L8,8 L8,27 L15.66663,27 C16.4021295,26.9978308 16.9978308,26.4021295 17,25.66663 L17,9.33331 C16.9978252,8.59783033 16.4021297,8.00215274 15.66665,8 Z" opacity=".2"/>
    <path fill="#000" fill-rule="nonzero" d="M15.66665,8 L8,8 L8,25 L15.66663,25 C16.4021295,24.9978308 16.9978308,24.4021295 17,23.66663 L17,9.33331 C16.9978252,8.59783033 16.4021297,8.00215274 15.66665,8 Z" opacity=".2"/>
    <path fill="#000" fill-rule="nonzero" d="M14.66665,8 L8,8 L8,25 L14.66663,25 C15.4021295,24.9978308 15.9978308,24.4021295 16,23.66663 L16,9.33331 C15.9978252,8.59783033 15.4021297,8.00215274 14.66665,8 Z" opacity=".2"/>
    <path fill="#185ABD" fill-rule="nonzero" d="M1.33329,8 L14.66666,8 C15.0202828,8 15.3594231,8.14047161 15.6094731,8.39051978 C15.8595232,8.64056795 16,8.97970716 16,9.33333 L16,22.66666 C16,23.0202855 15.8595221,23.3594272 15.6094702,23.6094773 C15.3594183,23.8595273 15.0202755,24 14.66665,24 L1.3333,24 C0.596932273,24 0,23.4030277 0,22.66666 L0,9.33333 C0,8.5969678 0.596927796,8 1.33329,8 Z"/>
    <polygon fill="#FFF" fill-rule="nonzero" points="11.95 21 10.15 21 8.05 14.1 5.85 21 4.05 21 2.05 11 3.85 11 5.25 18 7.35 11.2 8.85 11.2 10.85 18 12.25 11 13.95 11"/>
    <rect width="32" height="32"/>
  </g>
</svg>
